<svg id="Layer_1" data-name="Layer 1" xmlns="http://www.w3.org/2000/svg" viewBox="0 0 1000 1000"><defs><style>.cls-1{fill:#fff;}</style></defs><title>Appvia Logo White Mark Only</title><path class="cls-1" d="M936.27,666.42,753.92,797.3V629.17L936.27,499.26ZM309.8,797.3V629.17L468.14,515.44V683.58ZM246.08,629.17V797.3L63.73,666.42V499.26Zm31.86-293.63L444.12,454.17,277.94,573.77,111.76,454.17ZM500,177.7,666.18,295.83,500,415,333.82,295.83Zm31.86,337.74L690.2,629.17V797.3L531.86,683.58Zm356.38-61.27L722.06,573.77,555.88,454.17,722.06,335.54ZM500,102.7,0,459.07V699.75L277.94,897.3,500,739.46,722.06,897.3l277.94-198V459.07Z"/></svg>